<!-- Generated by IcoMoon.io -->
<svg version="1.1" xmlns="http://www.w3.org/2000/svg" width="1024" height="1024" viewBox="0 0 1024 1024">
<title></title>
<g id="icomoon-ignore">
</g>
<path fill="#000" d="M85.333 256h-85.333v213.333h0.427l-0.427 384c0 46.933 38.4 85.333 85.333 85.333h768v-85.333h-768v-597.333zM938.667 170.667h-341.333l-85.333-85.333h-256c-46.933 0-84.907 38.4-84.907 85.333l-0.427 512c0 46.933 38.4 85.333 85.333 85.333h682.667c46.933 0 85.333-38.4 85.333-85.333v-426.667c0-46.933-38.4-85.333-85.333-85.333zM298.667 640l192-256 149.333 192.427 106.667-128.427 149.333 192h-597.333z"></path>
</svg>
