<!-- Generated by IcoMoon.io -->
<svg version="1.1" xmlns="http://www.w3.org/2000/svg" width="1024" height="1024" viewBox="0 0 1024 1024">
<title></title>
<g id="icomoon-ignore">
</g>
<path fill="#000" d="M512.001 0c-284.444 0-512 227.556-512 512s227.556 512 512 512c45.511 0 85.333-39.822 85.333-85.333 0-22.756-5.689-39.822-22.756-56.889-11.378-17.067-22.756-34.133-22.756-56.889 0-45.511 39.824-85.333 85.333-85.333h102.4c159.289 0 284.444-125.156 284.444-284.444 0-250.311-227.556-455.111-512-455.111zM199.112 512c-45.511 0-85.333-39.822-85.333-85.333s39.822-85.333 85.333-85.333 85.333 39.822 85.333 85.333-39.822 85.333-85.333 85.333zM369.779 284.444c-45.511 0-85.333-39.822-85.333-85.333s39.822-85.333 85.333-85.333 85.333 39.822 85.333 85.333-39.822 85.333-85.333 85.333zM654.223 284.444c-45.511 0-85.333-39.822-85.333-85.333s39.822-85.333 85.333-85.333 85.333 39.822 85.333 85.333-39.822 85.333-85.333 85.333zM824.89 512c-45.511 0-85.333-39.822-85.333-85.333s39.822-85.333 85.333-85.333 85.333 39.822 85.333 85.333-39.822 85.333-85.333 85.333z"></path>
</svg>
