<!-- Generated by IcoMoon.io -->
<svg version="1.1" xmlns="http://www.w3.org/2000/svg" width="1024" height="1024" viewBox="0 0 1024 1024">
<title></title>
<g id="icomoon-ignore">
</g>
<path fill="#000" d="M1011.17 500.008c18.562-20.415 16.77-51.705-4.002-69.87l-457.638-400.436c-20.772-18.165-54.075-17.785-74.41 0.858l-459.194 420.927c-20.335 18.643-21.333 49.893-2.21 69.77l11.513 11.99c19.1 19.878 49.973 22.248 68.912 5.277l34.318-30.733v449.931c0 27.605 22.368 49.953 49.953 49.953h178.995c27.585 0 49.953-22.348 49.953-49.953v-314.771h228.311v314.771c-0.397 27.585 19.34 49.933 46.925 49.933h189.69c27.585 0 49.953-22.348 49.953-49.953v-443.576c0 0 9.48 8.305 21.173 18.582 11.673 10.258 36.19 2.033 54.753-18.402l13.008-14.3z"></path>
</svg>
