<!-- Generated by IcoMoon.io -->
<svg version="1.1" xmlns="http://www.w3.org/2000/svg" width="1024" height="1024" viewBox="0 0 1024 1024">
<title></title>
<g id="icomoon-ignore">
</g>
<path fill="#000" d="M167.155 334.513h-133.724c-18.384 0-33.432 14.972-33.432 33.43v601.762c0 18.45 14.982 33.426 33.432 33.426h133.724c18.45 0 33.432-14.978 33.432-33.426v-601.762c0-18.458-15.050-33.43-33.432-33.43z"></path>
<path fill="#000" d="M940.532 334.513c-5.384-0.912-257.479 0-257.479 0l35.212-96.064c24.296-66.348 8.566-167.654-58.848-203.67-21.95-11.728-52.618-17.618-77.344-11.394-14.18 3.568-26.642 12.956-34.070 25.534-8.542 14.466-7.66 31.352-10.702 47.392-7.714 40.684-26.938 79.366-56.708 108.4-51.904 50.622-213.142 196.662-213.142 196.662v534.9h557.186c75.184 0.044 124.456-83.916 87.374-149.498 44.202-28.31 59.32-87.94 33.432-133.724 44.204-28.31 59.32-87.94 33.432-133.724 76.268-48.846 50.77-169.742-38.344-184.814z"></path>
</svg>
