<!-- Generated by IcoMoon.io -->
<svg version="1.1" xmlns="http://www.w3.org/2000/svg" width="512" height="512" viewBox="0 0 512 512">
<title></title>
<g id="icomoon-ignore">
</g>
<path d="M219.256 319.368c-6.815 0-13.627-2.599-18.826-7.798-48.709-48.709-48.709-127.966 0-176.676l98.304-98.304c23.597-23.596 54.969-36.59 88.337-36.59s64.741 12.995 88.339 36.59c48.708 48.709 48.708 127.966 0 176.676l-44.936 44.936c-10.397 10.397-27.254 10.397-37.653 0-10.397-10.397-10.397-27.255 0-37.653l44.936-44.936c27.947-27.948 27.947-73.423 0-101.371-13.538-13.538-31.539-20.994-50.686-20.994s-37.147 7.456-50.686 20.995l-98.304 98.303c-27.948 27.948-27.948 73.424 0 101.372 10.398 10.397 10.397 27.255 0 37.652-5.197 5.198-12.012 7.798-18.825 7.798z"></path>
<path d="M124.928 512c-33.37 0-64.743-12.995-88.338-36.589-48.709-48.709-48.709-127.966 0-176.676l44.935-44.935c10.398-10.397 27.256-10.397 37.653 0 10.398 10.397 10.398 27.255 0 37.652l-44.935 44.935c-27.948 27.948-27.948 73.424 0 101.372 13.537 13.538 31.538 20.993 50.685 20.993s37.147-7.455 50.687-20.995l98.304-98.303c27.947-27.948 27.947-73.424 0-101.372-10.397-10.398-10.397-27.255 0-37.653 10.397-10.397 27.255-10.397 37.653 0.001 48.707 48.709 48.707 127.965 0.001 176.675l-98.305 98.304c-23.598 23.597-54.971 36.591-88.34 36.591z"></path>
</svg>
