<!-- Generated by IcoMoon.io -->
<svg version="1.1" xmlns="http://www.w3.org/2000/svg" width="1024" height="1024" viewBox="0 0 1024 1024">
<title></title>
<g id="icomoon-ignore">
</g>
<path fill="#000" d="M729.913 241.756h-678.988c-28.13 0-50.925 22.791-50.925 50.923v678.988c0 28.13 22.795 50.925 50.925 50.925h678.988c28.13 0 50.923-22.795 50.923-50.925v-678.988c0-28.132-22.793-50.923-50.923-50.923zM678.988 920.742h-577.14v-577.14h577.14v577.14z"></path>
<path fill="#000" d="M1013.905 858.115h-55.233v-594.314h55.233c4.079 0 7.758-2.454 9.316-6.231 1.575-3.779 0.712-8.108-2.187-11.006l-89.167-89.167c-3.946-3.946-10.343-3.946-14.287 0l-89.169 89.167c-2.9 2.9-3.762 7.227-2.187 11.006 1.56 3.777 5.239 6.231 9.318 6.231h55.233v594.314h-55.233c-4.079 0-7.758 2.452-9.318 6.231-1.573 3.781-0.712 8.11 2.187 11.010l89.169 89.167c3.944 3.946 10.343 3.946 14.287 0l89.167-89.167c2.902-2.9 3.764-7.227 2.187-11.010-1.558-3.779-5.235-6.231-9.316-6.231z"></path>
<path fill="#000" d="M147.235 196.998c2.9 2.9 7.227 3.762 11.008 2.187 3.779-1.556 6.233-5.237 6.233-9.316v-55.233h594.314v55.233c0 4.079 2.452 7.76 6.231 9.316 3.779 1.575 8.106 0.712 11.008-2.187l89.167-89.167c3.946-3.948 3.946-10.347 0-14.291l-89.167-89.165c-2.902-2.902-7.227-3.764-11.008-2.189-3.779 1.558-6.231 5.237-6.231 9.316v55.237h-594.314v-55.237c0-4.077-2.452-7.758-6.233-9.316-3.779-1.575-8.108-0.712-11.008 2.189l-89.165 89.165c-3.946 3.944-3.946 10.343 0 14.291l89.165 89.167z"></path>
</svg>
