<!-- Generated by IcoMoon.io -->
<svg version="1.1" xmlns="http://www.w3.org/2000/svg" width="1024" height="1024" viewBox="0 0 1024 1024">
<title></title>
<g id="icomoon-ignore">
</g>
<path fill="#000" d="M873.997 361.997v-211.994h-211.994l-150.003-150.003-150.003 150.003h-211.994v211.994l-150.003 150.003 150.003 150.003v211.994h211.994l150.003 150.003 150.003-150.003h211.994v-211.994l150.003-150.003-150.003-150.003zM512 783.498c-40.499 0-78.734-9.050-113.125-24.888 93.441-42.987 158.374-137.107 158.374-246.61s-64.934-203.624-158.374-246.61c34.39-15.837 72.626-24.888 113.125-24.888 150.003 0 271.498 121.495 271.498 271.498s-121.495 271.498-271.498 271.498z"></path>
</svg>
