<!-- Generated by IcoMoon.io -->
<svg version="1.1" xmlns="http://www.w3.org/2000/svg" width="1024" height="1024" viewBox="0 0 1024 1024">
<title></title>
<g id="icomoon-ignore">
</g>
<path fill="#000" d="M533.504 515.584c-119.296-230.912-25.6-434.176 27.136-515.584-274.432 9.728-494.080 234.496-494.080 511.488 0 7.168 1.024 14.336 1.024 21.504 31.744-13.824 66.048-21.504 102.4-21.504 84.992 0 162.816 42.496 209.92 110.080 85.504 24.576 148.48 103.424 148.48 197.12 0 77.824-44.544 144.896-108.544 179.712 50.176 16.384 103.936 25.6 159.232 25.6 179.2 0 336.897-92.16 428.544-231.424-120.832 11.776-357.376-49.664-474.112-276.993z"></path>
<path fill="#000" d="M323.584 716.289h-9.216c-21.504-59.392-77.824-102.4-144.384-102.4-84.992 0-153.6 68.608-153.6 153.6s68.608 153.6 153.6 153.6c31.744 0 127.488 0 153.6 0 56.32 0 102.4-46.080 102.4-102.4s-46.080-102.4-102.4-102.4z"></path>
</svg>
