<!-- Generated by IcoMoon.io -->
<svg version="1.1" xmlns="http://www.w3.org/2000/svg" width="1024" height="1024" viewBox="0 0 1024 1024">
<title></title>
<g id="icomoon-ignore">
</g>
<path fill="#000" d="M731.848 644.025h-46.253l-16.394-15.808c57.376-66.744 91.92-153.396 91.92-247.657 0-210.186-170.374-380.56-380.56-380.56s-380.56 170.374-380.56 380.56 170.374 380.56 380.56 380.56c94.261 0 180.913-34.543 247.657-91.92l15.808 16.394v46.253l292.738 292.154 87.236-87.236-292.154-292.738zM380.561 644.025c-145.784 0-263.465-117.681-263.465-263.465s117.681-263.465 263.465-263.465 263.465 117.681 263.465 263.465-117.681 263.465-263.465 263.465z"></path>
</svg>
