<!-- Generated by IcoMoon.io -->
<svg version="1.1" xmlns="http://www.w3.org/2000/svg" width="1024" height="1024" viewBox="0 0 1024 1024">
<title></title>
<g id="icomoon-ignore">
</g>
<path fill="#000" d="M820.434 723.793c-39.069 0-74.024 15.422-100.755 39.582l-366.522-213.334c2.57-11.823 4.627-23.647 4.627-35.984s-2.057-24.16-4.627-35.984l362.41-211.277c27.759 25.702 64.257 41.639 104.867 41.639 85.334 0 154.217-68.883 154.217-154.217s-68.883-154.217-154.217-154.217-154.217 68.883-154.217 154.217c0 12.337 2.057 24.16 4.627 35.984l-362.41 211.277c-27.759-25.702-64.257-41.639-104.867-41.639-85.334 0-154.217 68.883-154.217 154.217s68.883 154.217 154.217 154.217c40.611 0 77.108-15.936 104.867-41.639l366.008 213.847c-2.57 10.795-4.112 22.105-4.112 33.413 0 82.763 67.341 150.105 150.105 150.105s150.105-67.341 150.105-150.105-67.341-150.105-150.105-150.105z"></path>
</svg>
