<!-- Generated by IcoMoon.io -->
<svg version="1.1" xmlns="http://www.w3.org/2000/svg" width="1024" height="1024" viewBox="0 0 1024 1024">
<title></title>
<g id="icomoon-ignore">
</g>
<path fill="#000" d="M56.877 712.694h573.166v113.756h-573.166c-31.411 0-56.877-25.466-56.877-56.877s25.466-56.879 56.877-56.879z"></path>
<path fill="#000" d="M56.877 484.437h573.166v113.756h-573.166c-31.411 0-56.877-25.466-56.877-56.879s25.466-56.877 56.877-56.877z"></path>
<path fill="#000" d="M56.877 369.938v-0.002c-31.411 0-56.877-25.464-56.877-56.877s25.466-56.877 56.877-56.877h398.193c-4.498 13.853-6.873 28.462-6.873 43.452 0 25.099 6.581 49.174 18.874 70.304h-410.194z"></path>
<path fill="#000" d="M1002.934 350.492c-28.088 28.090-73.632 28.090-101.722 0l-59.058-59.058v614.77c0 39.726-32.203 71.927-71.929 71.927s-71.929-32.203-71.929-71.927v-614.77l-59.058 59.058c-28.090 28.088-73.632 28.090-101.722 0s-28.090-73.632 0-101.722l181.837-181.834c28.034-28.043 73.634-28.139 101.744 0l181.837 181.834c28.088 28.090 28.090 73.632 0 101.722z"></path>
</svg>
