<!-- Generated by IcoMoon.io -->
<svg version="1.1" xmlns="http://www.w3.org/2000/svg" width="1024" height="1024" viewBox="0 0 1024 1024">
<title></title>
<g id="icomoon-ignore">
</g>
<path fill="#000" d="M873.997 361.997v-211.994h-211.994l-150.003-150.003-150.003 150.003h-211.994v211.994l-150.003 150.003 150.003 150.003v211.994h211.994l150.003 150.003 150.003-150.003h211.994v-211.994l150.003-150.003-150.003-150.003zM512 783.498c-150.003 0-271.498-121.495-271.498-271.498s121.495-271.498 271.498-271.498 271.498 121.495 271.498 271.498-121.495 271.498-271.498 271.498zM512 331.001c-100.001 0-180.999 80.997-180.999 180.999s80.997 180.999 180.999 180.999 180.999-80.997 180.999-180.999-80.997-180.999-180.999-180.999z"></path>
</svg>
