<!-- Generated by IcoMoon.io -->
<svg version="1.1" xmlns="http://www.w3.org/2000/svg" width="1024" height="1024" viewBox="0 0 1024 1024">
<title></title>
<g id="icomoon-ignore">
</g>
<path fill="#000" d="M512 1024c-259.825 0-441.316-178.998-441.316-435.336 0-133.829 86.543-280.434 205.764-348.574 3.331-1.897 7.106-2.912 10.945-2.912 17.718 0 31.046 12.070 31.046 28.046 0 26.037 10.062 86.564 34.004 126.613 98.303-36.409 200.226-128.842 164.699-359.849-0.177-1.125-0.265-2.251-0.265-3.354 0-10.68 4.788-20.013 12.776-24.978 7.502-4.59 16.859-4.876 25.155-0.75 93.405 45.963 398.508 224.343 398.508 588.759 0 242.437-193.848 432.336-441.316 432.336zM535.213 42.491c0.066 0.022 0.11 0.044 0.177 0.088-0.066-0.044-0.11-0.066-0.177-0.088z"></path>
</svg>
