<!-- Generated by IcoMoon.io -->
<svg version="1.1" xmlns="http://www.w3.org/2000/svg" width="512" height="512" viewBox="0 0 512 512">
<title></title>
<g id="icomoon-ignore">
</g>
<path d="M511.998 97.23c-18.796 8.398-39.093 13.998-60.288 16.497 21.696-12.998 38.293-33.594 46.191-58.089-20.296 11.997-42.791 20.796-66.687 25.495-19.197-20.396-46.491-33.093-76.685-33.093-57.988 0-104.98 46.991-104.98 104.98 0 8.198 0.9 16.197 2.7 23.895-87.283-4.399-164.668-46.191-216.458-109.778-8.998 15.497-14.197 33.593-14.197 52.789 0 36.393 18.497 68.587 46.691 87.383-17.197-0.5-33.394-5.299-47.59-13.097 0 0.4 0 0.9 0 1.299 0 50.89 36.193 93.382 84.284 102.98-8.799 2.399-18.096 3.7-27.695 3.7-6.799 0-13.297-0.7-19.796-1.899 13.398 41.692 52.19 72.086 98.081 72.986-35.993 28.195-81.184 44.991-130.475 44.991-8.498 0-16.797-0.5-25.095-1.5 46.591 29.894 101.78 47.191 161.069 47.191 193.162 0 298.841-160.068 298.841-298.841 0-4.599-0.1-9.098-0.3-13.597 20.496-14.697 38.293-33.194 52.39-54.29z"></path>
</svg>
