<!-- Generated by IcoMoon.io -->
<svg version="1.1" xmlns="http://www.w3.org/2000/svg" width="1201" height="1024" viewBox="0 0 1201 1024">
<title></title>
<g id="icomoon-ignore">
</g>
<path fill="#000" d="M991.767 1020.222c-19.778 0-39.654-6.769-55.876-20.615-36.196-30.879-40.504-85.266-9.624-121.462 65.943-77.29 102.262-175.922 102.262-277.729 0-236.068-192.045-428.113-428.1-428.113-236.068 0-428.125 192.045-428.125 428.113 0 47.58-38.571 86.152-86.152 86.152s-86.152-38.571-86.152-86.152c0-331.069 269.347-600.416 600.429-600.416 331.069 0 600.404 269.347 600.404 600.416 0 142.766-50.965 281.113-143.492 389.566-17.033 19.975-41.23 30.239-65.574 30.239z"></path>
<path fill="#000" d="M462.844 974.758c-50.977 0-92.305-41.328-92.305-92.305v-529.23c0-50.977 41.328-92.305 92.305-92.305s92.305 41.328 92.305 92.305v529.23c0 50.977-41.316 92.305-92.305 92.305z"></path>
<path fill="#000" d="M462.93 974.77c-29.821 0-59.088-14.424-76.884-41.107-28.282-42.411-16.824-99.715 25.587-128.009l275.132-183.479c42.424-28.282 99.739-16.824 128.009 25.587 28.282 42.411 16.837 99.727-25.587 128.009l-275.12 183.479c-15.741 10.498-33.538 15.52-51.137 15.52z"></path>
<path fill="#000" d="M976.395 1024c-25.882 0-51.605-10.818-69.857-31.925l-216.327-250.136c-33.341-38.559-29.119-96.859 9.44-130.2 38.559-33.328 96.859-29.119 130.2 9.44l216.327 250.136c33.341 38.559 29.119 96.859-9.44 130.2-17.452 15.089-38.941 22.486-60.343 22.486z"></path>
</svg>
