<!-- Generated by IcoMoon.io -->
<svg version="1.1" xmlns="http://www.w3.org/2000/svg" width="512" height="512" viewBox="0 0 512 512">
<title></title>
<g id="icomoon-ignore">
</g>
<path d="M436.45 74.4c-47.9-48-111.6-74.4-179.5-74.4-139.8 0-253.6 113.8-253.6 253.7 0 44.7 11.7 88.4 33.9 126.8l-36 131.5 134.5-35.3c37.1 20.2 78.8 30.9 121.2 30.9h0.1c0 0 0 0 0 0 139.8 0 253.7-113.8 253.7-253.7 0-67.8-26.4-131.5-74.3-179.5zM257.050 464.8v0c-37.9 0-75-10.2-107.4-29.4l-7.7-4.6-79.8 20.9 21.3-77.8-5-8c-21.2-33.5-32.3-72.3-32.3-112.2 0-116.3 94.6-210.9 211-210.9 56.3 0 109.3 22 149.1 61.8 39.8 39.9 61.7 92.8 61.7 149.2-0.1 116.4-94.7 211-210.9 211zM372.65 306.8c-6.3-3.2-37.5-18.5-43.3-20.6s-10-3.2-14.3 3.2c-4.2 6.3-16.4 20.6-20.1 24.9-3.7 4.2-7.4 4.8-13.7 1.6s-26.8-9.9-51-31.5c-18.8-16.8-31.6-37.6-35.3-43.9s-0.4-9.8 2.8-12.9c2.9-2.8 6.3-7.4 9.5-11.1s4.2-6.3 6.3-10.6c2.1-4.2 1.1-7.9-0.5-11.1s-14.3-34.4-19.5-47.1c-5.1-12.4-10.4-10.7-14.3-10.9-3.7-0.2-7.9-0.2-12.1-0.2s-11.1 1.6-16.9 7.9c-5.8 6.3-22.2 21.7-22.2 52.9s22.7 61.3 25.9 65.6c3.2 4.2 44.7 68.3 108.3 95.7 15.1 6.5 26.9 10.4 36.1 13.4 15.2 4.8 29 4.1 39.9 2.5 12.2-1.8 37.5-15.3 42.8-30.1s5.3-27.5 3.7-30.1c-1.5-2.8-5.7-4.4-12.1-7.6z"></path>
</svg>
